<?xml version="1.0" encoding="UTF-8"?>
<svg id="logoSNCF" width="100" height="100" viewBox="0 0 216 153" fill="none" xmlns="http://www.w3.org/2000/svg">
<path d="M10.8369 129.316H18.1316C22.0158 129.316 25.2842 130.642 25.2842 135.047C25.2842 137.7 23.8632 139.737 21.2105 140.211L25.9947 148.216H21.0211L17.0895 140.637H15.0526V148.216H10.8842V129.316H10.8369ZM15.0053 137.132H17.4684C18.9842 137.132 20.9737 137.084 20.9737 135C20.9737 133.105 19.2684 132.821 17.7526 132.821H15.0053V137.132Z" fill="#7C2270"/>
<path d="M42.0526 129.316H54.8895V133.153H46.221V136.658H54.4158V140.495H46.221V144.332H55.3631V148.168H42.0526V129.316ZM48.4 124.105H53.8474L49.2052 127.942H45.7L48.4 124.105Z" fill="#7C2270"/>
<path d="M81.7947 133.911C81.1316 133.058 79.8053 132.679 78.7632 132.679C77.579 132.679 75.9684 133.2 75.9684 134.621C75.9684 138.079 84.6842 135.853 84.6842 142.484C84.6842 146.7 81.2737 148.689 77.3895 148.689C74.9737 148.689 72.8421 147.979 71.0421 146.321L74.0263 143.053C74.879 144.189 76.2526 144.853 77.6737 144.853C79.0474 144.853 80.5632 144.189 80.5632 142.863C80.5632 139.405 71.7053 141.253 71.7053 134.953C71.7053 130.926 75.2105 128.795 78.9053 128.795C81.0369 128.795 83.1211 129.363 84.6842 130.784L81.7947 133.911Z" fill="#7C2270"/>
<path d="M101.689 129.316H114.526V133.153H105.858V136.658H114.053V140.495H105.858V144.332H115V148.168H101.689V129.316Z" fill="#7C2270"/>
<path d="M138.353 129.316H141.811L150.053 148.216H145.316L143.705 144.189H136.363L134.8 148.216H130.158L138.353 129.316ZM139.963 134.811L137.689 140.684H142.332L139.963 134.811Z" fill="#7C2270"/>
<path d="M181.6 140.921C181.6 145.374 178.853 148.689 173.642 148.689C168.384 148.689 165.637 145.374 165.637 140.921V129.316H169.805V140.779C169.805 143.1 171.416 144.853 173.642 144.853C175.821 144.853 177.432 143.1 177.432 140.779V129.316H181.6V140.921Z" fill="#7C2270"/>
<path d="M3.92822 1.2655C1.55861 1.36502 0.0187378 2.45987 0.0187378 4.80103V109.18C0.0187378 110.999 1.3219 112.645 3.33141 112.645H189.677C191.351 112.645 192.687 112.493 193.474 110.284C193.474 110.284 212.36 51.1823 212.687 50.1121C213.389 47.8797 212.934 46.7465 211.029 45.534C150.341 6.64057 59.5601 0.999825 18.3877 0.999825C12.4775 0.999825 7.59596 1.11831 3.94585 1.26524" fill="url(#paint0_linear_915_33000)"/>
<path d="M118.527 83.5323C115.921 80.4945 114.888 76.5751 115.532 72.2056C117.068 61.784 127.21 55.1965 140.778 55.1965C143.636 55.1965 146.579 55.3766 149.223 55.713L151.906 47.8507C148.636 47.3483 144.674 47.135 140.788 47.135C128.755 47.135 118.29 51.2771 111.509 58.5803C111.295 58.8078 111.077 58.803 110.945 58.803C110.736 58.803 110.594 58.7651 110.651 58.5803L114.049 47.9217H104.115L93.2436 82.03C89.784 71.9639 82.6657 58.7272 73.9597 47.9217H63.2917L55.3156 72.7506C59.3249 75.7316 60.5951 77.8832 61.6424 80.9447C61.704 81.1248 61.832 81.1627 62.0263 81.1627C62.2206 81.1627 62.3154 81.1153 62.3675 80.9447C62.4434 80.7078 69.3247 59.367 69.3247 59.367C76.3435 69.4094 83.3102 82.6224 87.0447 96.5747H98.4852L104.144 78.8974C104.205 78.7173 104.329 78.6794 104.518 78.6794C104.717 78.6794 104.845 78.7315 104.869 78.8974C106.589 89.9967 117.627 97.4562 133.271 97.4562C143.385 97.4562 152.527 94.8022 154.802 93.5843L160.73 74.9117H183.498L185.815 67.6796H163.043L166.972 55.4192H194.104L196.469 47.9217H158.356L145.418 88.3616C142.674 89.0535 139.281 89.3948 135.736 89.3948C128.101 89.3948 121.987 87.5796 118.527 83.5323ZM54.2634 55.386L56.5288 48.263C53.2729 47.6658 50.946 47.3578 47.0598 47.2677C34.5672 46.9786 23.2736 50.4241 20.3685 57.7225C16.9278 66.3763 26.6906 71.2435 35.1501 75.2529C41.8656 78.4377 47.1736 81.466 45.3063 85.4328C43.8561 88.5085 39.1026 89.9682 32.1928 89.8118C26.2072 89.6696 18.7429 87.954 12.8615 84.992L9.36395 92.5558C13.6909 94.5653 22.6101 97.2951 30.2213 97.4704C44.5148 97.7974 53.7706 94.2004 57.4766 86.4185C61.8604 77.2055 50.9839 72.1677 42.2495 67.9497C35.4108 64.6465 30.7474 62.9214 31.8706 59.5992C33.1976 55.6656 40.0742 54.1728 46.3063 54.315C49.4579 54.3908 51.6995 54.7936 54.2634 55.386Z" fill="white"/>
<defs>
<linearGradient id="paint0_linear_915_33000" x1="0.0250333" y1="-5.52104" x2="212.686" y2="-5.52104" gradientUnits="userSpaceOnUse">
<stop stop-color="#7C2270"/>
<stop offset="0.2472" stop-color="#AA147E"/>
<stop offset="0.8146" stop-color="#E41D25"/>
<stop offset="1" stop-color="#E41D25"/>
</linearGradient>
</defs>
</svg>
